<svg xmlns="http://www.w3.org/2000/svg" xmlns:xlink="http://www.w3.org/1999/xlink" contentStyleType="text/css" data-diagram-type="ACTIVITY" height="678px" preserveAspectRatio="none" style="width:429px;height:678px;background:#FFFFFF;" version="1.1" viewBox="0 0 429 678" width="429px" zoomAndPan="magnify"><defs/><g><ellipse cx="178.5078" cy="20" fill="#222222" rx="10" ry="10" style="stroke:#222222;stroke-width:1;"/><rect fill="#F1F1F1" height="33.9688" rx="12.5" ry="12.5" style="stroke:#181818;stroke-width:0.5;" width="147.6875" x="104.6641" y="50"/><text fill="#000000" font-family="sans-serif" font-size="12" lengthAdjust="spacing" textLength="127.6875" x="114.6641" y="71.1387">Records Chess Game</text><rect fill="#F1F1F1" height="33.9688" rx="12.5" ry="12.5" style="stroke:#181818;stroke-width:0.5;" width="128.5391" x="114.2383" y="103.9688"/><text fill="#000000" font-family="sans-serif" font-size="12" lengthAdjust="spacing" textLength="108.5391" x="124.2383" y="125.1074">Start Chess Game</text><rect fill="#F1F1F1" height="33.9688" rx="12.5" ry="12.5" style="stroke:#181818;stroke-width:0.5;" width="182.3926" x="87.3115" y="201.9375"/><text fill="#000000" font-family="sans-serif" font-size="12" lengthAdjust="spacing" textLength="162.3926" x="97.3115" y="223.0762">User selects piece to move</text><rect fill="#F1F1F1" height="33.9688" rx="12.5" ry="12.5" style="stroke:#181818;stroke-width:0.5;" width="88.3086" x="134.3535" y="255.9063"/><text fill="#000000" font-family="sans-serif" font-size="12" lengthAdjust="spacing" textLength="68.3086" x="144.3535" y="277.0449">Move piece</text><polygon fill="#F1F1F1" points="139.0706,309.875,217.9451,309.875,229.9451,321.875,217.9451,333.875,139.0706,333.875,127.0706,321.875,139.0706,309.875" style="stroke:#181818;stroke-width:0.5;"/><text fill="#000000" font-family="sans-serif" font-size="11" lengthAdjust="spacing" textLength="78.8745" x="139.0706" y="325.6831">Is move valid?</text><text fill="#000000" font-family="sans-serif" font-size="11" lengthAdjust="spacing" textLength="19.0083" x="108.0623" y="319.2808">yes</text><text fill="#000000" font-family="sans-serif" font-size="11" lengthAdjust="spacing" textLength="13.7017" x="229.9451" y="319.2808">no</text><rect fill="#F1F1F1" height="33.9688" rx="12.5" ry="12.5" style="stroke:#181818;stroke-width:0.5;" width="135.5293" x="11" y="343.875"/><text fill="#000000" font-family="sans-serif" font-size="12" lengthAdjust="spacing" textLength="115.5293" x="21" y="365.0137">Update game state</text><rect fill="#F1F1F1" height="33.9688" rx="12.5" ry="12.5" style="stroke:#181818;stroke-width:0.5;" width="223.4434" x="166.5293" y="343.875"/><text fill="#000000" font-family="sans-serif" font-size="12" lengthAdjust="spacing" textLength="203.4434" x="176.5293" y="365.0137">Show warning: Illegal chess move</text><rect fill="#F1F1F1" height="33.9688" rx="12.5" ry="12.5" style="stroke:#181818;stroke-width:0.5;" width="167.0059" x="194.748" y="397.8438"/><text fill="#000000" font-family="sans-serif" font-size="12" lengthAdjust="spacing" textLength="147.0059" x="204.748" y="418.9824">Prompt user to try again</text><polygon fill="#F1F1F1" points="178.5078,437.8125,190.5078,449.8125,178.5078,461.8125,166.5078,449.8125,178.5078,437.8125" style="stroke:#181818;stroke-width:0.5;"/><polygon fill="#F1F1F1" points="178.5078,157.9375,190.5078,169.9375,178.5078,181.9375,166.5078,169.9375,178.5078,157.9375" style="stroke:#181818;stroke-width:0.5;"/><polygon fill="#F1F1F1" points="135.2544,481.8125,221.7612,481.8125,233.7612,493.8125,221.7612,505.8125,135.2544,505.8125,123.2544,493.8125,135.2544,481.8125" style="stroke:#181818;stroke-width:0.5;"/><text fill="#000000" font-family="sans-serif" font-size="11" lengthAdjust="spacing" textLength="13.7017" x="182.5078" y="516.0229">no</text><text fill="#000000" font-family="sans-serif" font-size="11" lengthAdjust="spacing" textLength="86.5068" x="135.2544" y="497.6206">Game ongoing?</text><text fill="#000000" font-family="sans-serif" font-size="11" lengthAdjust="spacing" textLength="19.0083" x="233.7612" y="491.2183">yes</text><rect fill="#F1F1F1" height="33.9688" rx="12.5" ry="12.5" style="stroke:#181818;stroke-width:0.5;" width="88.3965" x="134.3096" y="537.5229"/><text fill="#000000" font-family="sans-serif" font-size="12" lengthAdjust="spacing" textLength="68.3965" x="144.3096" y="558.6616">Game ends</text><rect fill="#F1F1F1" height="33.9688" rx="12.5" ry="12.5" style="stroke:#181818;stroke-width:0.5;" width="112.6367" x="122.1895" y="591.4917"/><text fill="#000000" font-family="sans-serif" font-size="12" lengthAdjust="spacing" textLength="92.6367" x="132.1895" y="612.6304">Convert to PGN</text><ellipse cx="178.5078" cy="656.4604" fill="transparent" rx="11" ry="11" style="stroke:#222222;stroke-width:1;"/><ellipse cx="178.5078" cy="656.4604" fill="#222222" rx="6" ry="6" style="stroke:#222222;stroke-width:1;"/><line style="stroke:#181818;stroke-width:1;" x1="178.5078" x2="178.5078" y1="30" y2="50"/><polygon fill="#181818" points="174.5078,40,178.5078,50,182.5078,40,178.5078,44" style="stroke:#181818;stroke-width:1;"/><line style="stroke:#181818;stroke-width:1;" x1="178.5078" x2="178.5078" y1="83.9688" y2="103.9688"/><polygon fill="#181818" points="174.5078,93.9688,178.5078,103.9688,182.5078,93.9688,178.5078,97.9688" style="stroke:#181818;stroke-width:1;"/><line style="stroke:#181818;stroke-width:1;" x1="178.5078" x2="178.5078" y1="235.9063" y2="255.9063"/><polygon fill="#181818" points="174.5078,245.9063,178.5078,255.9063,182.5078,245.9063,178.5078,249.9063" style="stroke:#181818;stroke-width:1;"/><line style="stroke:#181818;stroke-width:1;" x1="278.251" x2="278.251" y1="377.8438" y2="397.8438"/><polygon fill="#181818" points="274.251,387.8438,278.251,397.8438,282.251,387.8438,278.251,391.8438" style="stroke:#181818;stroke-width:1;"/><line style="stroke:#181818;stroke-width:1;" x1="127.0706" x2="78.7646" y1="321.875" y2="321.875"/><line style="stroke:#181818;stroke-width:1;" x1="78.7646" x2="78.7646" y1="321.875" y2="343.875"/><polygon fill="#181818" points="74.7646,333.875,78.7646,343.875,82.7646,333.875,78.7646,337.875" style="stroke:#181818;stroke-width:1;"/><line style="stroke:#181818;stroke-width:1;" x1="229.9451" x2="278.251" y1="321.875" y2="321.875"/><line style="stroke:#181818;stroke-width:1;" x1="278.251" x2="278.251" y1="321.875" y2="343.875"/><polygon fill="#181818" points="274.251,333.875,278.251,343.875,282.251,333.875,278.251,337.875" style="stroke:#181818;stroke-width:1;"/><line style="stroke:#181818;stroke-width:1;" x1="78.7646" x2="78.7646" y1="377.8438" y2="449.8125"/><line style="stroke:#181818;stroke-width:1;" x1="78.7646" x2="166.5078" y1="449.8125" y2="449.8125"/><polygon fill="#181818" points="156.5078,445.8125,166.5078,449.8125,156.5078,453.8125,160.5078,449.8125" style="stroke:#181818;stroke-width:1;"/><line style="stroke:#181818;stroke-width:1;" x1="278.251" x2="278.251" y1="431.8125" y2="449.8125"/><line style="stroke:#181818;stroke-width:1;" x1="278.251" x2="190.5078" y1="449.8125" y2="449.8125"/><polygon fill="#181818" points="200.5078,445.8125,190.5078,449.8125,200.5078,453.8125,196.5078,449.8125" style="stroke:#181818;stroke-width:1;"/><line style="stroke:#181818;stroke-width:1;" x1="178.5078" x2="178.5078" y1="289.875" y2="309.875"/><polygon fill="#181818" points="174.5078,299.875,178.5078,309.875,182.5078,299.875,178.5078,303.875" style="stroke:#181818;stroke-width:1;"/><line style="stroke:#181818;stroke-width:1;" x1="178.5078" x2="178.5078" y1="181.9375" y2="201.9375"/><polygon fill="#181818" points="174.5078,191.9375,178.5078,201.9375,182.5078,191.9375,178.5078,195.9375" style="stroke:#181818;stroke-width:1;"/><line style="stroke:#181818;stroke-width:1;" x1="233.7612" x2="403.9727" y1="493.8125" y2="493.8125"/><polygon fill="#181818" points="399.9727,334.375,403.9727,324.375,407.9727,334.375,403.9727,330.375" style="stroke:#181818;stroke-width:1;"/><line style="stroke:#181818;stroke-width:1;" x1="403.9727" x2="403.9727" y1="169.9375" y2="493.8125"/><line style="stroke:#181818;stroke-width:1;" x1="403.9727" x2="190.5078" y1="169.9375" y2="169.9375"/><polygon fill="#181818" points="200.5078,165.9375,190.5078,169.9375,200.5078,173.9375,196.5078,169.9375" style="stroke:#181818;stroke-width:1;"/><line style="stroke:#181818;stroke-width:1;" x1="178.5078" x2="178.5078" y1="461.8125" y2="481.8125"/><polygon fill="#181818" points="174.5078,471.8125,178.5078,481.8125,182.5078,471.8125,178.5078,475.8125" style="stroke:#181818;stroke-width:1;"/><line style="stroke:#181818;stroke-width:1;" x1="178.5078" x2="178.5078" y1="137.9375" y2="157.9375"/><polygon fill="#181818" points="174.5078,147.9375,178.5078,157.9375,182.5078,147.9375,178.5078,151.9375" style="stroke:#181818;stroke-width:1;"/><line style="stroke:#181818;stroke-width:1;" x1="178.5078" x2="178.5078" y1="505.8125" y2="537.5229"/><polygon fill="#181818" points="174.5078,527.5229,178.5078,537.5229,182.5078,527.5229,178.5078,531.5229" style="stroke:#181818;stroke-width:1;"/><line style="stroke:#181818;stroke-width:1;" x1="178.5078" x2="178.5078" y1="571.4917" y2="591.4917"/><polygon fill="#181818" points="174.5078,581.4917,178.5078,591.4917,182.5078,581.4917,178.5078,585.4917" style="stroke:#181818;stroke-width:1;"/><line style="stroke:#181818;stroke-width:1;" x1="178.5078" x2="178.5078" y1="625.4604" y2="645.4604"/><polygon fill="#181818" points="174.5078,635.4604,178.5078,645.4604,182.5078,635.4604,178.5078,639.4604" style="stroke:#181818;stroke-width:1;"/><!--SRC=[LL0nZiCm3Dlp2exf5zBXXWv5XnR55Ns0aQYE0SSoB3L1Vt-oSpVS9fCqIKdK5UswuPj6BfFWD9C8pcwXew6Folx72cLosW73KwX0ADAeWXne92XZuRNAZB_QjEFj7LxeBz9uh2w6wUi0dIcX_v0SJ50jy-IKu2qAeZOU3QSeX3xnh-OnyuRDbHII7t29aRoB65l7FRp9xeMNh7ZNabPBomVEkv2QOvh2wsyLR7E85b3t0oVFvclLWkp5a5Ztz6ve4liizJOdJYlPTSpyVhuP8ihv1m00]--></g></svg>