<svg xmlns="http://www.w3.org/2000/svg" xmlns:xlink="http://www.w3.org/1999/xlink" contentStyleType="text/css" data-diagram-type="SEQUENCE" height="501px" preserveAspectRatio="none" style="width:581px;height:501px;background:#FFFFFF;" version="1.1" viewBox="0 0 581 501" width="581px" zoomAndPan="magnify"><defs/><g><rect fill="transparent" height="146.6641" style="stroke:#000000;stroke-width:1.5;" width="565.479" x="10" y="227.8281"/><g><title>User</title><rect fill="transparent" height="339.3281" width="8" x="34.9551" y="81.2969"/><line style="stroke:#181818;stroke-width:0.5;stroke-dasharray:5.0,5.0;" x1="38" x2="38" y1="81.2969" y2="420.625"/></g><g><title>Camera</title><rect fill="transparent" height="339.3281" width="8" x="156.9883" y="81.2969"/><line style="stroke:#181818;stroke-width:0.5;stroke-dasharray:5.0,5.0;" x1="160.5181" x2="160.5181" y1="81.2969" y2="420.625"/></g><g><title>Local Machine</title><rect fill="transparent" height="339.3281" width="8" x="342.9297" y="81.2969"/><line style="stroke:#181818;stroke-width:0.5;stroke-dasharray:5.0,5.0;" x1="346.1367" x2="346.1367" y1="81.2969" y2="420.625"/></g><g><title>User Interface</title><rect fill="transparent" height="339.3281" width="8" x="504.9595" y="81.2969"/><line style="stroke:#181818;stroke-width:0.5;stroke-dasharray:5.0,5.0;" x1="508.4399" x2="508.4399" y1="81.2969" y2="420.625"/></g><text fill="#000000" font-family="sans-serif" font-size="14" lengthAdjust="spacing" textLength="31.9102" x="20" y="77.9951">User</text><ellipse cx="38.9551" cy="13.5" fill="#E2E2F0" rx="8" ry="8" style="stroke:#181818;stroke-width:0.5;"/><path d="M38.9551,21.5 L38.9551,48.5 M25.9551,29.5 L51.9551,29.5 M38.9551,48.5 L25.9551,63.5 M38.9551,48.5 L51.9551,63.5 " fill="transparent" style="stroke:#181818;stroke-width:0.5;"/><text fill="#000000" font-family="sans-serif" font-size="14" lengthAdjust="spacing" textLength="31.9102" x="20" y="432.6201">User</text><ellipse cx="38.9551" cy="444.4219" fill="#E2E2F0" rx="8" ry="8" style="stroke:#181818;stroke-width:0.5;"/><path d="M38.9551,452.4219 L38.9551,479.4219 M25.9551,460.4219 L51.9551,460.4219 M38.9551,479.4219 L25.9551,494.4219 M38.9551,479.4219 L51.9551,494.4219 " fill="transparent" style="stroke:#181818;stroke-width:0.5;"/><rect fill="#E2E2F0" height="30.2969" rx="2.5" ry="2.5" style="stroke:#181818;stroke-width:0.5;" width="68.9404" x="126.5181" y="50"/><text fill="#000000" font-family="sans-serif" font-size="14" lengthAdjust="spacing" textLength="54.9404" x="133.5181" y="69.9951">Camera</text><rect fill="#E2E2F0" height="30.2969" rx="2.5" ry="2.5" style="stroke:#181818;stroke-width:0.5;" width="68.9404" x="126.5181" y="419.625"/><text fill="#000000" font-family="sans-serif" font-size="14" lengthAdjust="spacing" textLength="54.9404" x="133.5181" y="439.6201">Camera</text><rect fill="#E2E2F0" height="30.2969" rx="2.5" ry="2.5" style="stroke:#181818;stroke-width:0.5;" width="113.5859" x="290.1367" y="50"/><text fill="#000000" font-family="sans-serif" font-size="14" lengthAdjust="spacing" textLength="99.5859" x="297.1367" y="69.9951">Local Machine</text><rect fill="#E2E2F0" height="30.2969" rx="2.5" ry="2.5" style="stroke:#181818;stroke-width:0.5;" width="113.5859" x="290.1367" y="419.625"/><text fill="#000000" font-family="sans-serif" font-size="14" lengthAdjust="spacing" textLength="99.5859" x="297.1367" y="439.6201">Local Machine</text><rect fill="#E2E2F0" height="30.2969" rx="2.5" ry="2.5" style="stroke:#181818;stroke-width:0.5;" width="113.0391" x="452.4399" y="50"/><text fill="#000000" font-family="sans-serif" font-size="14" lengthAdjust="spacing" textLength="99.0391" x="459.4399" y="69.9951">User Interface</text><rect fill="#E2E2F0" height="30.2969" rx="2.5" ry="2.5" style="stroke:#181818;stroke-width:0.5;" width="113.0391" x="452.4399" y="419.625"/><text fill="#000000" font-family="sans-serif" font-size="14" lengthAdjust="spacing" textLength="99.0391" x="459.4399" y="439.6201">User Interface</text><polygon fill="#181818" points="148.9883,108.4297,158.9883,112.4297,148.9883,116.4297,152.9883,112.4297" style="stroke:#181818;stroke-width:1;"/><line style="stroke:#181818;stroke-width:1;" x1="38.9551" x2="154.9883" y1="112.4297" y2="112.4297"/><text fill="#000000" font-family="sans-serif" font-size="13" lengthAdjust="spacing" textLength="98.0332" x="45.9551" y="107.3638">Start recording</text><polygon fill="#181818" points="334.9297,137.5625,344.9297,141.5625,334.9297,145.5625,338.9297,141.5625" style="stroke:#181818;stroke-width:1;"/><line style="stroke:#181818;stroke-width:1;" x1="160.9883" x2="340.9297" y1="141.5625" y2="141.5625"/><text fill="#000000" font-family="sans-serif" font-size="13" lengthAdjust="spacing" textLength="130.9395" x="167.9883" y="136.4966">Capture board state</text><line style="stroke:#181818;stroke-width:1;" x1="346.9297" x2="388.9297" y1="170.6953" y2="170.6953"/><line style="stroke:#181818;stroke-width:1;" x1="388.9297" x2="388.9297" y1="170.6953" y2="183.6953"/><line style="stroke:#181818;stroke-width:1;" x1="347.9297" x2="388.9297" y1="183.6953" y2="183.6953"/><polygon fill="#181818" points="357.9297,179.6953,347.9297,183.6953,357.9297,187.6953,353.9297,183.6953" style="stroke:#181818;stroke-width:1;"/><text fill="#000000" font-family="sans-serif" font-size="13" lengthAdjust="spacing" textLength="100.6104" x="353.9297" y="165.6294">Validate moves</text><polygon fill="#181818" points="496.9595,208.8281,506.9595,212.8281,496.9595,216.8281,500.9595,212.8281" style="stroke:#181818;stroke-width:1;"/><line style="stroke:#181818;stroke-width:1;" x1="346.9297" x2="502.9595" y1="212.8281" y2="212.8281"/><text fill="#000000" font-family="sans-serif" font-size="13" lengthAdjust="spacing" textLength="138.0298" x="353.9297" y="207.7622">Display move to user</text><path d="M10,227.8281 L86.624,227.8281 L86.624,234.9609 L76.624,244.9609 L10,244.9609 L10,227.8281 " fill="#EEEEEE" style="stroke:#000000;stroke-width:1.5;"/><rect fill="transparent" height="146.6641" style="stroke:#000000;stroke-width:1.5;" width="565.479" x="10" y="227.8281"/><text fill="#000000" font-family="sans-serif" font-size="13" font-weight="bold" lengthAdjust="spacing" textLength="31.624" x="25" y="240.895">loop</text><text fill="#000000" font-family="sans-serif" font-size="11" font-weight="bold" lengthAdjust="spacing" textLength="111.2085" x="101.624" y="240.0386">[Until game ends]</text><polygon fill="#181818" points="148.9883,262.0938,158.9883,266.0938,148.9883,270.0938,152.9883,266.0938" style="stroke:#181818;stroke-width:1;"/><line style="stroke:#181818;stroke-width:1;" x1="38.9551" x2="154.9883" y1="266.0938" y2="266.0938"/><text fill="#000000" font-family="sans-serif" font-size="13" lengthAdjust="spacing" textLength="75.1499" x="45.9551" y="261.0278">Make move</text><polygon fill="#181818" points="334.9297,291.2266,344.9297,295.2266,334.9297,299.2266,338.9297,295.2266" style="stroke:#181818;stroke-width:1;"/><line style="stroke:#181818;stroke-width:1;" x1="160.9883" x2="340.9297" y1="295.2266" y2="295.2266"/><text fill="#000000" font-family="sans-serif" font-size="13" lengthAdjust="spacing" textLength="161.9414" x="167.9883" y="290.1606">Capture new board state</text><line style="stroke:#181818;stroke-width:1;" x1="346.9297" x2="388.9297" y1="324.3594" y2="324.3594"/><line style="stroke:#181818;stroke-width:1;" x1="388.9297" x2="388.9297" y1="324.3594" y2="337.3594"/><line style="stroke:#181818;stroke-width:1;" x1="347.9297" x2="388.9297" y1="337.3594" y2="337.3594"/><polygon fill="#181818" points="357.9297,333.3594,347.9297,337.3594,357.9297,341.3594,353.9297,337.3594" style="stroke:#181818;stroke-width:1;"/><text fill="#000000" font-family="sans-serif" font-size="13" lengthAdjust="spacing" textLength="124.8394" x="353.9297" y="319.2935">Validate new move</text><polygon fill="#181818" points="496.9595,362.4922,506.9595,366.4922,496.9595,370.4922,500.9595,366.4922" style="stroke:#181818;stroke-width:1;"/><line style="stroke:#181818;stroke-width:1;" x1="346.9297" x2="502.9595" y1="366.4922" y2="366.4922"/><text fill="#000000" font-family="sans-serif" font-size="13" lengthAdjust="spacing" textLength="97.373" x="353.9297" y="361.4263">Update display</text><polygon fill="#181818" points="334.9297,398.625,344.9297,402.625,334.9297,406.625,338.9297,402.625" style="stroke:#181818;stroke-width:1;"/><line style="stroke:#181818;stroke-width:1;" x1="38.9551" x2="340.9297" y1="402.625" y2="402.625"/><text fill="#000000" font-family="sans-serif" font-size="13" lengthAdjust="spacing" textLength="106.4819" x="45.9551" y="397.5591">Save as PGN file</text><!--SRC=[VP11QWCn34NtFeN8lXVeefiKIg4fXJ3TAxQIYdfi8siISljgFDCcaqAyiU0_VNq9lMQ1hf80LXZiTwwWA7ikc1HMQ-n9S3MglfLB-IrxZB11_yM96jLFzH9h0rwJakpHJzp0petpuE5fTeP7sAfrWP3F4ZWTt2mOCjiQiyQYWn3iCag0ggZaVjK5-8cHWwdGvoFLQsPWav-vbeZdfeBcUVcOSu4kAKSus72W5Ae3U_-oRl1xicxolQI9Jekq8ty_yTZnPtqRl2kD2LD-PmalbxnuRT7MiZj_lBp3dYFz0000]--></g></svg>